<?xml version="1.0" encoding="UTF-8"?>
<svg xmlns="http://www.w3.org/2000/svg" xmlns:xlink="http://www.w3.org/1999/xlink" width="70px" height="70px" viewBox="0 0 70 70" version="1.1">
<g id="surface1">
<path style=" stroke:none;fill-rule:nonzero;fill:rgb(40.000001%,69.803923%,20%);fill-opacity:1;" d="M 49.839844 17.1875 C 50.058594 17.367188 50.261719 17.566406 50.464844 17.769531 C 50.503906 17.808594 50.542969 17.847656 50.578125 17.882812 C 50.683594 17.988281 50.789062 18.09375 50.894531 18.199219 C 51.007812 18.3125 51.117188 18.421875 51.230469 18.535156 C 51.453125 18.757812 51.675781 18.976562 51.894531 19.199219 C 52.074219 19.378906 52.253906 19.558594 52.4375 19.738281 C 52.945312 20.25 53.453125 20.761719 53.964844 21.269531 C 53.992188 21.296875 54.019531 21.324219 54.046875 21.351562 C 54.078125 21.378906 54.105469 21.40625 54.132812 21.433594 C 54.578125 21.882812 55.023438 22.328125 55.46875 22.773438 C 55.929688 23.230469 56.386719 23.6875 56.84375 24.148438 C 57.101562 24.40625 57.359375 24.660156 57.617188 24.917969 C 57.835938 25.136719 58.054688 25.355469 58.273438 25.574219 C 58.386719 25.6875 58.496094 25.796875 58.609375 25.910156 C 58.710938 26.011719 58.8125 26.113281 58.914062 26.214844 C 58.953125 26.253906 58.988281 26.289062 59.027344 26.328125 C 59.257812 26.558594 59.472656 26.800781 59.675781 27.054688 C 59.707031 27.09375 59.738281 27.132812 59.769531 27.171875 C 60.011719 27.476562 60.214844 27.800781 60.410156 28.140625 C 60.425781 28.167969 60.441406 28.191406 60.457031 28.21875 C 61.109375 29.363281 61.449219 30.675781 61.496094 31.988281 C 61.496094 32.054688 61.496094 32.054688 61.5 32.121094 C 61.53125 34.070312 60.878906 36.011719 59.640625 37.519531 C 59.617188 37.550781 59.589844 37.582031 59.566406 37.613281 C 59.214844 38.039062 58.816406 38.421875 58.425781 38.8125 C 58.316406 38.921875 58.207031 39.03125 58.097656 39.140625 C 57.910156 39.332031 57.714844 39.523438 57.527344 39.710938 C 57.242188 39.996094 56.957031 40.28125 56.675781 40.566406 C 56.164062 41.074219 55.660156 41.578125 55.152344 42.089844 C 54.707031 42.53125 54.265625 42.972656 53.820312 43.417969 C 53.773438 43.464844 53.773438 43.464844 53.730469 43.507812 C 53.609375 43.628906 53.492188 43.746094 53.371094 43.867188 C 52.25 44.988281 51.128906 46.109375 50.007812 47.230469 C 49.007812 48.226562 48.015625 49.226562 47.019531 50.21875 C 45.898438 51.34375 44.777344 52.460938 43.65625 53.582031 C 43.539062 53.699219 43.417969 53.820312 43.300781 53.941406 C 43.269531 53.96875 43.242188 53.996094 43.210938 54.027344 C 42.765625 54.472656 42.324219 54.917969 41.878906 55.359375 C 41.375 55.863281 40.871094 56.367188 40.367188 56.871094 C 40.085938 57.15625 39.800781 57.4375 39.519531 57.71875 C 39.332031 57.910156 39.140625 58.097656 38.953125 58.285156 C 38.847656 58.390625 38.738281 58.5 38.632812 58.609375 C 38.535156 58.707031 38.433594 58.804688 38.339844 58.898438 C 38.300781 58.9375 38.269531 58.96875 38.230469 59.007812 C 38.007812 59.234375 37.769531 59.441406 37.519531 59.640625 C 37.480469 59.671875 37.445312 59.703125 37.40625 59.734375 C 37.085938 59.984375 36.746094 60.199219 36.398438 60.410156 C 36.378906 60.421875 36.355469 60.4375 36.332031 60.449219 C 35.269531 61.078125 33.941406 61.457031 32.707031 61.46875 C 32.671875 61.46875 32.644531 61.46875 32.613281 61.46875 C 31.914062 61.476562 31.238281 61.46875 30.554688 61.320312 C 30.503906 61.308594 30.503906 61.308594 30.449219 61.296875 C 29.765625 61.144531 29.101562 60.917969 28.484375 60.582031 C 28.421875 60.550781 28.355469 60.515625 28.289062 60.484375 C 26.394531 59.523438 24.996094 57.710938 24.324219 55.71875 C 23.65625 53.613281 23.855469 51.292969 24.847656 49.320312 C 25.199219 48.636719 25.660156 48.027344 26.179688 47.460938 C 26.226562 47.410156 26.226562 47.410156 26.273438 47.355469 C 26.507812 47.101562 26.746094 46.855469 26.992188 46.609375 C 27.03125 46.570312 27.066406 46.535156 27.105469 46.496094 C 27.207031 46.390625 27.308594 46.289062 27.414062 46.1875 C 27.523438 46.078125 27.636719 45.964844 27.75 45.851562 C 27.945312 45.65625 28.140625 45.460938 28.335938 45.265625 C 28.628906 44.972656 28.921875 44.679688 29.214844 44.390625 C 29.671875 43.929688 30.132812 43.46875 30.59375 43.011719 C 31.324219 42.28125 32.054688 41.550781 32.785156 40.820312 C 33.070312 40.539062 33.347656 40.257812 33.628906 39.976562 C 33.664062 39.945312 33.691406 39.914062 33.726562 39.882812 C 34.46875 39.136719 35.214844 38.394531 35.957031 37.652344 C 36.007812 37.601562 36.007812 37.601562 36.054688 37.554688 C 36.8125 36.792969 37.574219 36.035156 38.332031 35.277344 C 38.363281 35.246094 38.398438 35.210938 38.429688 35.179688 C 38.695312 34.917969 38.957031 34.652344 39.222656 34.390625 C 40.304688 33.304688 41.394531 32.222656 42.480469 31.136719 C 42.632812 30.980469 42.785156 30.828125 42.9375 30.675781 C 42.96875 30.644531 42.996094 30.613281 43.03125 30.585938 C 43.515625 30.097656 44 29.613281 44.488281 29.128906 C 44.972656 28.640625 45.460938 28.152344 45.949219 27.667969 C 46.238281 27.378906 46.527344 27.085938 46.816406 26.800781 C 47.011719 26.605469 47.207031 26.414062 47.398438 26.21875 C 47.507812 26.105469 47.621094 25.996094 47.730469 25.886719 C 48.328125 25.296875 48.328125 25.296875 48.859375 24.640625 C 48.894531 24.59375 48.929688 24.550781 48.964844 24.503906 C 49.234375 24.148438 49.457031 23.773438 49.664062 23.382812 C 49.679688 23.351562 49.695312 23.324219 49.710938 23.296875 C 50.511719 21.765625 50.804688 19.835938 50.304688 18.15625 C 50.214844 17.871094 50.097656 17.613281 49.921875 17.367188 C 49.875 17.289062 49.875 17.289062 49.839844 17.1875 Z M 49.839844 17.1875 "/>
<path style=" stroke:none;fill-rule:nonzero;fill:rgb(40.000001%,69.803923%,20%);fill-opacity:1;" d="M 42.527344 10.011719 C 42.558594 10.035156 42.597656 10.058594 42.632812 10.085938 C 43.242188 10.53125 43.816406 11.054688 44.277344 11.65625 C 44.296875 11.683594 44.296875 11.683594 44.316406 11.710938 C 45.691406 13.480469 46.277344 15.726562 46.003906 17.941406 C 45.925781 18.507812 45.792969 19.0625 45.605469 19.601562 C 45.59375 19.632812 45.59375 19.632812 45.582031 19.667969 C 45.132812 20.957031 44.363281 22 43.402344 22.960938 C 43.367188 22.996094 43.328125 23.035156 43.289062 23.074219 C 43.1875 23.175781 43.085938 23.277344 42.984375 23.382812 C 42.871094 23.496094 42.757812 23.605469 42.644531 23.71875 C 42.449219 23.914062 42.253906 24.113281 42.054688 24.308594 C 41.761719 24.601562 41.46875 24.894531 41.179688 25.1875 C 40.6875 25.675781 40.191406 26.167969 39.703125 26.660156 C 39.027344 27.332031 38.359375 28.003906 37.683594 28.675781 C 37.375 28.988281 37.058594 29.300781 36.746094 29.613281 C 36.714844 29.648438 36.683594 29.679688 36.652344 29.710938 C 35.90625 30.457031 35.160156 31.203125 34.414062 31.949219 C 34.378906 31.980469 34.347656 32.011719 34.3125 32.046875 C 33.820312 32.542969 33.324219 33.039062 32.824219 33.535156 C 32.296875 34.0625 31.765625 34.59375 31.238281 35.121094 C 31.203125 35.152344 31.171875 35.1875 31.136719 35.21875 C 30.394531 35.964844 29.648438 36.707031 28.902344 37.453125 C 28.855469 37.5 28.855469 37.5 28.808594 37.546875 C 28.496094 37.859375 28.183594 38.175781 27.871094 38.484375 C 27.199219 39.15625 26.53125 39.828125 25.859375 40.5 C 25.371094 40.988281 24.878906 41.476562 24.390625 41.964844 C 24.101562 42.257812 23.808594 42.546875 23.519531 42.835938 C 23.324219 43.03125 23.128906 43.226562 22.9375 43.421875 C 22.824219 43.53125 22.714844 43.640625 22.601562 43.753906 C 22.503906 43.851562 22.402344 43.953125 22.300781 44.054688 C 22.265625 44.089844 22.230469 44.125 22.191406 44.164062 C 22.015625 44.339844 21.839844 44.519531 21.679688 44.710938 C 21.617188 44.78125 21.550781 44.847656 21.488281 44.917969 C 21.109375 45.335938 20.785156 45.808594 20.511719 46.304688 C 20.496094 46.332031 20.480469 46.359375 20.464844 46.386719 C 19.566406 47.980469 19.175781 49.9375 19.671875 51.730469 C 19.777344 52.085938 19.925781 52.394531 20.125 52.710938 C 20.136719 52.734375 20.148438 52.757812 20.160156 52.78125 C 20.035156 52.726562 19.953125 52.652344 19.859375 52.558594 C 19.828125 52.527344 19.792969 52.492188 19.761719 52.460938 C 19.722656 52.421875 19.6875 52.386719 19.652344 52.351562 C 19.613281 52.3125 19.578125 52.277344 19.539062 52.238281 C 19.433594 52.132812 19.328125 52.027344 19.222656 51.921875 C 19.109375 51.808594 18.996094 51.695312 18.882812 51.582031 C 18.664062 51.363281 18.441406 51.140625 18.21875 50.917969 C 17.960938 50.660156 17.699219 50.398438 17.441406 50.140625 C 16.984375 49.679688 16.523438 49.21875 16.058594 48.757812 C 15.613281 48.3125 15.164062 47.863281 14.71875 47.414062 C 14.691406 47.386719 14.664062 47.359375 14.636719 47.332031 C 14.59375 47.289062 14.59375 47.289062 14.550781 47.25 C 14.042969 46.738281 13.53125 46.230469 13.023438 45.71875 C 12.84375 45.539062 12.664062 45.359375 12.484375 45.179688 C 12.265625 44.960938 12.046875 44.742188 11.828125 44.519531 C 11.714844 44.410156 11.601562 44.296875 11.492188 44.1875 C 11.386719 44.082031 11.285156 43.980469 11.183594 43.875 C 11.144531 43.839844 11.109375 43.804688 11.070312 43.765625 C 10.875 43.570312 10.679688 43.371094 10.5 43.152344 C 10.484375 43.132812 10.464844 43.113281 10.445312 43.089844 C 10.167969 42.757812 9.917969 42.410156 9.695312 42.035156 C 9.679688 42.007812 9.664062 41.980469 9.648438 41.957031 C 8.523438 40.066406 8.242188 37.773438 8.761719 35.652344 C 9.226562 33.84375 10.273438 32.484375 11.574219 31.1875 C 11.683594 31.078125 11.792969 30.96875 11.902344 30.859375 C 12.09375 30.664062 12.285156 30.476562 12.476562 30.28125 C 12.761719 30 13.046875 29.714844 13.328125 29.429688 C 13.839844 28.921875 14.347656 28.414062 14.855469 27.90625 C 15.300781 27.460938 15.742188 27.015625 16.1875 26.574219 C 16.234375 26.527344 16.234375 26.527344 16.277344 26.484375 C 16.398438 26.363281 16.515625 26.242188 16.636719 26.121094 C 17.761719 25 18.882812 23.875 20.007812 22.753906 C 21.003906 21.753906 22.003906 20.757812 23.003906 19.757812 C 24.125 18.636719 25.246094 17.515625 26.367188 16.394531 C 26.488281 16.273438 26.605469 16.152344 26.726562 16.035156 C 26.753906 16.003906 26.785156 15.976562 26.8125 15.945312 C 27.261719 15.5 27.703125 15.054688 28.148438 14.613281 C 28.652344 14.109375 29.160156 13.601562 29.664062 13.097656 C 29.949219 12.8125 30.230469 12.53125 30.511719 12.25 C 30.703125 12.058594 30.890625 11.871094 31.078125 11.679688 C 31.1875 11.574219 31.292969 11.46875 31.402344 11.359375 C 31.5 11.261719 31.597656 11.160156 31.695312 11.066406 C 31.730469 11.03125 31.765625 10.996094 31.800781 10.957031 C 32.027344 10.734375 32.261719 10.523438 32.515625 10.324219 C 32.554688 10.292969 32.59375 10.261719 32.632812 10.230469 C 32.9375 9.988281 33.261719 9.785156 33.601562 9.589844 C 33.640625 9.566406 33.640625 9.566406 33.675781 9.542969 C 36.402344 7.988281 39.976562 8.195312 42.527344 10.011719 Z M 42.527344 10.011719 "/>
<path style=" stroke:none;fill-rule:nonzero;fill:rgb(56.078434%,92.54902%,28.627452%);fill-opacity:1;" d="M 42.527344 10.011719 C 42.558594 10.035156 42.597656 10.058594 42.632812 10.085938 C 43.242188 10.53125 43.816406 11.054688 44.277344 11.65625 C 44.296875 11.683594 44.296875 11.683594 44.316406 11.710938 C 45.691406 13.480469 46.277344 15.726562 46.003906 17.941406 C 45.925781 18.507812 45.792969 19.0625 45.605469 19.601562 C 45.59375 19.632812 45.59375 19.632812 45.582031 19.667969 C 45.25 20.613281 44.75 21.460938 44.101562 22.226562 C 44.078125 22.25 44.054688 22.277344 44.03125 22.304688 C 43.859375 22.5 43.679688 22.683594 43.5 22.867188 C 43.464844 22.90625 43.464844 22.90625 43.429688 22.941406 C 43.289062 23.085938 43.15625 23.183594 42.980469 23.273438 C 42.925781 23.316406 42.871094 23.359375 42.816406 23.398438 C 42.324219 23.761719 41.765625 24.015625 41.195312 24.21875 C 41.15625 24.234375 41.15625 24.234375 41.117188 24.25 C 40.375 24.507812 39.570312 24.699219 38.792969 24.789062 C 38.757812 24.792969 38.730469 24.796875 38.699219 24.800781 C 38.632812 24.808594 38.566406 24.8125 38.503906 24.824219 C 38.40625 24.832031 38.308594 24.847656 38.207031 24.855469 C 38.144531 24.867188 38.082031 24.875 38.015625 24.878906 C 37.988281 24.886719 37.960938 24.886719 37.929688 24.890625 C 36.601562 25.046875 35.25 25.03125 33.914062 25.035156 C 33.878906 25.035156 33.84375 25.035156 33.808594 25.035156 C 33.230469 25.039062 32.648438 25.039062 32.070312 25.042969 C 31.632812 25.042969 31.195312 25.046875 30.757812 25.046875 C 30.589844 25.046875 30.417969 25.046875 30.246094 25.046875 C 29.394531 25.050781 28.546875 25.070312 27.699219 25.121094 C 27.496094 25.132812 27.296875 25.144531 27.097656 25.152344 C 25.695312 25.230469 24.28125 25.386719 22.90625 25.671875 C 22.808594 25.691406 22.710938 25.710938 22.613281 25.730469 C 21.242188 25.996094 19.886719 26.371094 18.585938 26.878906 C 18.554688 26.890625 18.527344 26.902344 18.496094 26.914062 C 18.160156 27.042969 17.824219 27.179688 17.5 27.335938 C 17.414062 27.378906 17.328125 27.417969 17.242188 27.460938 C 17.070312 27.542969 16.894531 27.625 16.71875 27.710938 C 16.664062 27.738281 16.605469 27.765625 16.546875 27.792969 C 15.726562 28.179688 14.890625 28.652344 14.175781 29.214844 C 14.105469 29.261719 14.105469 29.261719 14 29.261719 C 14 29.285156 14 29.308594 14 29.332031 C 13.953125 29.371094 13.953125 29.371094 13.886719 29.414062 C 13.851562 29.4375 13.851562 29.4375 13.8125 29.464844 C 13.789062 29.484375 13.757812 29.5 13.734375 29.519531 C 13.453125 29.714844 13.179688 29.921875 12.914062 30.136719 C 12.863281 30.175781 12.863281 30.175781 12.8125 30.21875 C 12.621094 30.371094 12.441406 30.527344 12.261719 30.691406 C 12.1875 30.757812 12.113281 30.824219 12.039062 30.886719 C 11.992188 30.929688 11.945312 30.96875 11.902344 31.007812 C 11.875 31.03125 11.851562 31.054688 11.824219 31.074219 C 11.542969 31.320312 11.285156 31.585938 11.023438 31.847656 C 11 31.839844 10.976562 31.828125 10.953125 31.816406 C 12.96875 29.800781 14.980469 27.785156 16.996094 25.773438 C 17.027344 25.742188 17.054688 25.710938 17.085938 25.683594 C 17.734375 25.035156 18.378906 24.386719 19.027344 23.738281 C 19.34375 23.421875 19.664062 23.101562 19.980469 22.785156 C 20.011719 22.753906 20.042969 22.722656 20.078125 22.6875 C 21.101562 21.664062 22.125 20.640625 23.148438 19.613281 C 24.203125 18.5625 25.253906 17.507812 26.308594 16.457031 C 26.457031 16.308594 26.605469 16.160156 26.753906 16.007812 C 26.78125 15.980469 26.8125 15.953125 26.839844 15.921875 C 27.3125 15.449219 27.785156 14.980469 28.257812 14.507812 C 28.726562 14.03125 29.203125 13.558594 29.675781 13.085938 C 29.957031 12.804688 30.238281 12.523438 30.519531 12.242188 C 30.707031 12.050781 30.894531 11.863281 31.085938 11.675781 C 31.191406 11.570312 31.296875 11.464844 31.40625 11.355469 C 31.503906 11.257812 31.601562 11.160156 31.699219 11.0625 C 31.734375 11.03125 31.769531 10.992188 31.800781 10.957031 C 32.027344 10.730469 32.261719 10.523438 32.515625 10.324219 C 32.554688 10.292969 32.59375 10.261719 32.632812 10.230469 C 32.9375 9.988281 33.261719 9.785156 33.601562 9.589844 C 33.640625 9.566406 33.640625 9.566406 33.675781 9.542969 C 36.402344 7.988281 39.976562 8.195312 42.527344 10.011719 Z M 42.527344 10.011719 "/>
<path style=" stroke:none;fill-rule:nonzero;fill:rgb(56.078434%,92.54902%,28.627452%);fill-opacity:1;" d="M 57.539062 39.480469 C 57.5625 39.492188 57.585938 39.503906 57.609375 39.515625 C 57.386719 39.765625 57.160156 40.003906 56.925781 40.238281 C 56.882812 40.277344 56.882812 40.277344 56.84375 40.316406 C 56.730469 40.429688 56.621094 40.535156 56.507812 40.644531 C 56.429688 40.726562 56.347656 40.808594 56.265625 40.890625 C 56.226562 40.925781 56.226562 40.925781 56.1875 40.964844 C 56.164062 40.988281 56.140625 41.011719 56.117188 41.035156 C 56.097656 41.054688 56.078125 41.074219 56.058594 41.09375 C 55.996094 41.160156 55.996094 41.160156 55.953125 41.242188 C 55.898438 41.332031 55.839844 41.398438 55.765625 41.472656 C 55.742188 41.5 55.714844 41.523438 55.6875 41.550781 C 55.660156 41.578125 55.632812 41.605469 55.601562 41.636719 C 55.570312 41.667969 55.542969 41.695312 55.511719 41.730469 C 55.425781 41.816406 55.339844 41.898438 55.253906 41.984375 C 55.164062 42.074219 55.070312 42.167969 54.980469 42.257812 C 54.816406 42.421875 54.65625 42.582031 54.496094 42.742188 C 54.257812 42.984375 54.015625 43.222656 53.773438 43.464844 C 53.347656 43.894531 52.917969 44.324219 52.488281 44.75 C 52.113281 45.125 51.738281 45.5 51.363281 45.875 C 51.335938 45.902344 51.3125 45.925781 51.289062 45.953125 C 51.1875 46.054688 51.085938 46.152344 50.984375 46.253906 C 50.035156 47.203125 49.089844 48.152344 48.140625 49.097656 C 47.296875 49.941406 46.457031 50.78125 45.613281 51.625 C 44.667969 52.570312 43.722656 53.515625 42.777344 54.464844 C 42.675781 54.5625 42.574219 54.664062 42.476562 54.765625 C 42.449219 54.789062 42.425781 54.816406 42.398438 54.839844 C 42.023438 55.214844 41.648438 55.589844 41.273438 55.964844 C 40.847656 56.390625 40.421875 56.820312 39.996094 57.246094 C 39.753906 57.484375 39.515625 57.722656 39.277344 57.960938 C 39.117188 58.121094 38.957031 58.28125 38.800781 58.4375 C 38.707031 58.53125 38.617188 58.621094 38.527344 58.710938 C 38.429688 58.808594 38.332031 58.910156 38.230469 59.003906 C 38.203125 59.035156 38.175781 59.0625 38.148438 59.089844 C 37.949219 59.289062 37.738281 59.464844 37.519531 59.640625 C 37.5 59.65625 37.476562 59.671875 37.457031 59.691406 C 37.125 59.960938 36.765625 60.191406 36.398438 60.410156 C 36.378906 60.421875 36.355469 60.4375 36.332031 60.449219 C 35.269531 61.078125 33.941406 61.457031 32.707031 61.46875 C 32.671875 61.46875 32.644531 61.46875 32.613281 61.46875 C 31.914062 61.476562 31.238281 61.46875 30.554688 61.320312 C 30.519531 61.3125 30.484375 61.304688 30.449219 61.296875 C 29.765625 61.144531 29.101562 60.917969 28.484375 60.582031 C 28.421875 60.550781 28.355469 60.515625 28.289062 60.484375 C 26.394531 59.523438 24.996094 57.710938 24.324219 55.71875 C 23.65625 53.613281 23.855469 51.292969 24.847656 49.320312 C 25.183594 48.675781 25.605469 48.085938 26.101562 47.546875 C 26.152344 47.488281 26.210938 47.425781 26.261719 47.363281 C 26.289062 47.332031 26.320312 47.300781 26.347656 47.269531 C 26.371094 47.242188 26.394531 47.210938 26.421875 47.183594 C 26.496094 47.105469 26.574219 47.058594 26.671875 47.003906 C 26.714844 46.964844 26.761719 46.921875 26.804688 46.878906 C 27.832031 45.957031 29.308594 45.5 30.644531 45.304688 C 30.707031 45.292969 30.769531 45.285156 30.828125 45.273438 C 32.984375 44.929688 35.167969 44.960938 37.339844 44.953125 C 37.996094 44.953125 38.652344 44.953125 39.308594 44.949219 C 39.34375 44.949219 39.378906 44.949219 39.414062 44.949219 C 40.441406 44.945312 41.464844 44.9375 42.488281 44.871094 C 42.523438 44.867188 42.550781 44.863281 42.582031 44.863281 C 43.71875 44.792969 44.847656 44.6875 45.96875 44.515625 C 46 44.511719 46.03125 44.507812 46.058594 44.503906 C 46.371094 44.457031 46.679688 44.40625 46.988281 44.335938 C 47.125 44.308594 47.265625 44.28125 47.402344 44.257812 C 47.691406 44.210938 47.976562 44.148438 48.257812 44.082031 C 48.285156 44.074219 48.3125 44.066406 48.335938 44.0625 C 49.695312 43.738281 51.054688 43.324219 52.324219 42.734375 C 52.390625 42.707031 52.457031 42.675781 52.519531 42.644531 C 53.746094 42.089844 54.945312 41.453125 56.03125 40.652344 C 56.109375 40.59375 56.1875 40.539062 56.269531 40.480469 C 56.632812 40.214844 56.984375 39.941406 57.328125 39.65625 C 57.351562 39.636719 57.371094 39.621094 57.390625 39.605469 C 57.441406 39.5625 57.488281 39.519531 57.539062 39.480469 Z M 57.539062 39.480469 "/>
<path style=" stroke:none;fill-rule:nonzero;fill:rgb(51.764709%,87.450981%,24.313726%);fill-opacity:1;" d="M 32.132812 10.640625 C 32.152344 10.652344 32.175781 10.664062 32.199219 10.675781 C 32.1875 10.691406 32.171875 10.703125 32.15625 10.71875 C 30.597656 12.273438 29.042969 13.832031 27.484375 15.386719 C 27.460938 15.410156 27.4375 15.433594 27.414062 15.457031 C 26.90625 15.964844 26.402344 16.46875 25.898438 16.972656 C 25.648438 17.222656 25.402344 17.46875 25.152344 17.71875 C 25.117188 17.753906 25.117188 17.753906 25.078125 17.792969 C 24.277344 18.589844 23.480469 19.390625 22.679688 20.191406 C 21.859375 21.011719 21.035156 21.832031 20.214844 22.65625 C 20.097656 22.769531 19.980469 22.886719 19.867188 23.003906 C 19.832031 23.039062 19.832031 23.039062 19.796875 23.070312 C 19.429688 23.4375 19.0625 23.804688 18.695312 24.171875 C 18.324219 24.542969 17.953125 24.914062 17.582031 25.28125 C 17.367188 25.503906 17.144531 25.722656 16.925781 25.941406 C 16.777344 26.085938 16.628906 26.234375 16.484375 26.382812 C 16.402344 26.464844 16.320312 26.550781 16.234375 26.632812 C 16.144531 26.722656 16.054688 26.8125 15.964844 26.902344 C 15.9375 26.929688 15.914062 26.953125 15.886719 26.980469 C 15.730469 27.136719 15.597656 27.296875 15.46875 27.472656 C 15.5 27.496094 15.527344 27.519531 15.558594 27.539062 C 15.585938 27.566406 15.617188 27.589844 15.644531 27.613281 C 15.644531 27.636719 15.644531 27.660156 15.644531 27.6875 C 15.570312 27.710938 15.570312 27.710938 15.46875 27.71875 C 15.375 27.667969 15.375 27.667969 15.296875 27.613281 C 14.960938 27.902344 14.652344 28.21875 14.339844 28.53125 C 14.28125 28.589844 14.222656 28.648438 14.164062 28.703125 C 14.042969 28.828125 13.921875 28.945312 13.800781 29.066406 C 13.644531 29.222656 13.492188 29.378906 13.335938 29.535156 C 13.214844 29.652344 13.09375 29.773438 12.976562 29.890625 C 12.917969 29.949219 12.859375 30.003906 12.800781 30.0625 C 12.722656 30.144531 12.640625 30.222656 12.5625 30.300781 C 12.539062 30.324219 12.515625 30.347656 12.492188 30.375 C 12.457031 30.40625 12.457031 30.40625 12.425781 30.441406 C 12.398438 30.46875 12.398438 30.46875 12.367188 30.496094 C 12.316406 30.558594 12.285156 30.621094 12.25 30.695312 C 12.191406 30.753906 12.132812 30.808594 12.070312 30.863281 C 12.039062 30.890625 12.007812 30.917969 11.972656 30.949219 C 11.914062 31 11.859375 31.050781 11.800781 31.101562 C 11.621094 31.253906 11.453125 31.417969 11.289062 31.585938 C 11.25 31.625 11.25 31.625 11.210938 31.664062 C 11.148438 31.726562 11.085938 31.789062 11.023438 31.847656 C 11 31.839844 10.976562 31.828125 10.953125 31.816406 C 17.941406 24.828125 24.929688 17.839844 32.132812 10.640625 Z M 32.132812 10.640625 "/>
<path style=" stroke:none;fill-rule:nonzero;fill:rgb(33.725491%,88.627452%,22.745098%);fill-opacity:1;" d="M 19.390625 23.382812 C 19.425781 23.398438 19.425781 23.398438 19.460938 23.414062 C 19.441406 23.433594 19.421875 23.453125 19.402344 23.472656 C 18.929688 23.941406 18.460938 24.410156 17.992188 24.878906 C 17.765625 25.105469 17.539062 25.332031 17.308594 25.558594 C 17.113281 25.757812 16.914062 25.953125 16.714844 26.152344 C 16.609375 26.257812 16.507812 26.359375 16.402344 26.464844 C 16.304688 26.5625 16.207031 26.664062 16.105469 26.761719 C 16.070312 26.796875 16.035156 26.832031 16 26.871094 C 15.804688 27.058594 15.625 27.25 15.46875 27.472656 C 15.5 27.496094 15.527344 27.519531 15.558594 27.539062 C 15.585938 27.566406 15.617188 27.589844 15.644531 27.613281 C 15.644531 27.636719 15.644531 27.660156 15.644531 27.6875 C 15.570312 27.710938 15.570312 27.710938 15.46875 27.71875 C 15.375 27.667969 15.375 27.667969 15.296875 27.613281 C 14.960938 27.902344 14.652344 28.21875 14.339844 28.53125 C 14.28125 28.589844 14.222656 28.648438 14.164062 28.703125 C 14.042969 28.828125 13.921875 28.945312 13.800781 29.066406 C 13.644531 29.222656 13.492188 29.378906 13.335938 29.535156 C 13.214844 29.652344 13.09375 29.773438 12.976562 29.890625 C 12.917969 29.949219 12.859375 30.003906 12.800781 30.0625 C 12.722656 30.144531 12.640625 30.222656 12.5625 30.300781 C 12.539062 30.324219 12.515625 30.347656 12.492188 30.375 C 12.46875 30.394531 12.449219 30.417969 12.425781 30.441406 C 12.40625 30.460938 12.386719 30.476562 12.367188 30.496094 C 12.316406 30.558594 12.285156 30.621094 12.25 30.695312 C 12.191406 30.753906 12.132812 30.808594 12.070312 30.863281 C 12.039062 30.890625 12.007812 30.917969 11.972656 30.949219 C 11.914062 31 11.859375 31.050781 11.800781 31.101562 C 11.621094 31.253906 11.453125 31.417969 11.289062 31.585938 C 11.261719 31.613281 11.238281 31.636719 11.210938 31.664062 C 11.148438 31.726562 11.085938 31.789062 11.023438 31.847656 C 11 31.839844 10.976562 31.828125 10.953125 31.816406 C 13.738281 29.03125 16.523438 26.246094 19.390625 23.382812 Z M 19.390625 23.382812 "/>
<path style=" stroke:none;fill-rule:nonzero;fill:rgb(45.09804%,69.803923%,16.862746%);fill-opacity:1;" d="M 26.847656 46.761719 C 26.867188 46.785156 26.890625 46.808594 26.914062 46.832031 C 26.8125 46.921875 26.707031 47.015625 26.601562 47.109375 C 26.578125 47.097656 26.554688 47.085938 26.53125 47.074219 C 26.632812 46.972656 26.738281 46.867188 26.847656 46.761719 Z M 26.847656 46.761719 "/>
<path style=" stroke:none;fill-rule:nonzero;fill:rgb(40.784314%,88.627452%,23.137255%);fill-opacity:1;" d="M 19.390625 23.382812 C 19.425781 23.398438 19.425781 23.398438 19.460938 23.414062 C 19.441406 23.433594 19.421875 23.453125 19.402344 23.472656 C 18.929688 23.941406 18.464844 24.410156 17.992188 24.875 C 17.765625 25.101562 17.539062 25.328125 17.3125 25.554688 C 17.117188 25.753906 16.917969 25.949219 16.71875 26.148438 C 16.617188 26.253906 16.511719 26.355469 16.40625 26.460938 C 16.308594 26.558594 16.207031 26.65625 16.109375 26.757812 C 16.074219 26.792969 16.039062 26.828125 16.003906 26.867188 C 15.816406 27.050781 15.640625 27.234375 15.492188 27.449219 C 15.417969 27.523438 15.363281 27.535156 15.257812 27.542969 C 15.445312 27.320312 15.648438 27.117188 15.851562 26.914062 C 15.890625 26.875 15.933594 26.835938 15.96875 26.796875 C 16.074219 26.691406 16.175781 26.585938 16.28125 26.484375 C 16.390625 26.375 16.503906 26.265625 16.609375 26.15625 C 16.816406 25.949219 17.023438 25.742188 17.230469 25.535156 C 17.464844 25.300781 17.703125 25.066406 17.9375 24.832031 C 18.421875 24.347656 18.90625 23.863281 19.390625 23.382812 Z M 19.390625 23.382812 "/>
<path style=" stroke:none;fill-rule:nonzero;fill:rgb(30.588236%,90.588236%,23.137255%);fill-opacity:1;" d="M 58.730469 38.394531 C 58.765625 38.410156 58.765625 38.410156 58.800781 38.429688 C 57.875 39.355469 56.953125 40.277344 56 41.230469 C 56 41.125 56 41.125 56.054688 41.058594 C 56.078125 41.035156 56.105469 41.007812 56.128906 40.984375 C 56.160156 40.957031 56.1875 40.929688 56.21875 40.898438 C 56.246094 40.867188 56.277344 40.839844 56.3125 40.804688 C 56.359375 40.757812 56.40625 40.710938 56.457031 40.660156 C 56.523438 40.59375 56.59375 40.527344 56.664062 40.457031 C 56.78125 40.34375 56.902344 40.226562 57.019531 40.109375 C 57.085938 40.042969 57.144531 39.980469 57.210938 39.917969 C 57.390625 39.742188 57.554688 39.554688 57.714844 39.355469 C 57.820312 39.230469 57.9375 39.128906 58.066406 39.023438 C 58.296875 38.824219 58.515625 38.613281 58.730469 38.394531 Z M 58.730469 38.394531 "/>
<path style=" stroke:none;fill-rule:nonzero;fill:rgb(34.509805%,91.37255%,23.921569%);fill-opacity:1;" d="M 54.773438 42.105469 C 54.855469 42.128906 54.9375 42.152344 55.019531 42.175781 C 54.882812 42.339844 54.742188 42.492188 54.589844 42.644531 C 54.570312 42.664062 54.550781 42.683594 54.53125 42.703125 C 54.46875 42.765625 54.40625 42.828125 54.339844 42.890625 C 54.296875 42.933594 54.257812 42.976562 54.214844 43.019531 C 54.109375 43.121094 54.003906 43.226562 53.898438 43.328125 C 53.898438 43.222656 53.898438 43.222656 53.957031 43.160156 C 53.996094 43.121094 53.996094 43.121094 54.035156 43.082031 C 54.0625 43.054688 54.089844 43.027344 54.121094 42.996094 C 54.152344 42.96875 54.179688 42.941406 54.210938 42.914062 C 54.269531 42.855469 54.328125 42.800781 54.386719 42.742188 C 54.410156 42.71875 54.4375 42.691406 54.464844 42.667969 C 54.527344 42.597656 54.5625 42.539062 54.601562 42.457031 C 54.578125 42.421875 54.554688 42.386719 54.53125 42.351562 C 54.625 42.339844 54.714844 42.328125 54.808594 42.3125 C 54.820312 42.28125 54.832031 42.246094 54.84375 42.210938 C 54.820312 42.199219 54.796875 42.1875 54.773438 42.175781 C 54.773438 42.152344 54.773438 42.128906 54.773438 42.105469 Z M 54.773438 42.105469 "/>
<path style=" stroke:none;fill-rule:nonzero;fill:rgb(58.823532%,86.666667%,25.882354%);fill-opacity:1;" d="M 26.496094 47.109375 C 26.53125 47.121094 26.5625 47.132812 26.601562 47.144531 C 26.394531 47.355469 26.183594 47.5625 25.96875 47.773438 C 25.96875 47.671875 25.96875 47.671875 26.03125 47.597656 C 26.058594 47.574219 26.085938 47.546875 26.117188 47.519531 C 26.25 47.390625 26.375 47.253906 26.496094 47.109375 Z M 26.496094 47.109375 "/>
<path style=" stroke:none;fill-rule:nonzero;fill:rgb(32.156864%,88.235295%,22.745098%);fill-opacity:1;" d="M 58.730469 38.394531 C 58.753906 38.40625 58.777344 38.417969 58.800781 38.429688 C 58.570312 38.660156 58.339844 38.890625 58.097656 39.128906 C 58.078125 39.105469 58.054688 39.085938 58.03125 39.0625 C 58.054688 39.035156 58.085938 39.011719 58.113281 38.984375 C 58.324219 38.792969 58.53125 38.597656 58.730469 38.394531 Z M 58.730469 38.394531 "/>
<path style=" stroke:none;fill-rule:nonzero;fill:rgb(28.627452%,95.686275%,26.274511%);fill-opacity:1;" d="M 15.570312 27.535156 C 15.644531 27.613281 15.644531 27.613281 15.644531 27.6875 C 15.53125 27.722656 15.484375 27.726562 15.375 27.675781 C 15.296875 27.613281 15.296875 27.613281 15.257812 27.542969 C 15.445312 27.460938 15.445312 27.460938 15.570312 27.535156 Z M 15.570312 27.535156 "/>
<path style=" stroke:none;fill-rule:nonzero;fill:rgb(34.509805%,90.980393%,23.921569%);fill-opacity:1;" d="M 15.609375 27.160156 C 15.632812 27.171875 15.65625 27.183594 15.679688 27.195312 C 15.644531 27.246094 15.605469 27.300781 15.570312 27.351562 C 15.546875 27.378906 15.527344 27.40625 15.503906 27.4375 C 15.421875 27.519531 15.375 27.535156 15.257812 27.542969 C 15.371094 27.414062 15.484375 27.28125 15.609375 27.160156 Z M 15.609375 27.160156 "/>
<path style=" stroke:none;fill-rule:nonzero;fill:rgb(29.019609%,95.686275%,26.274511%);fill-opacity:1;" d="M 15.75 27.824219 C 15.785156 27.894531 15.785156 27.894531 15.78125 27.976562 C 15.738281 28.097656 15.679688 28.136719 15.574219 28.210938 C 15.542969 28.1875 15.503906 28.164062 15.46875 28.140625 C 15.5 28.113281 15.527344 28.085938 15.558594 28.058594 C 15.652344 27.976562 15.652344 27.976562 15.644531 27.894531 C 15.679688 27.871094 15.714844 27.847656 15.75 27.824219 Z M 15.75 27.824219 "/>
<path style=" stroke:none;fill-rule:nonzero;fill:rgb(29.803923%,95.294118%,26.274511%);fill-opacity:1;" d="M 54.285156 41.753906 C 54.308594 41.765625 54.332031 41.777344 54.355469 41.789062 C 54.320312 41.800781 54.285156 41.8125 54.25 41.824219 C 54.273438 41.925781 54.273438 41.925781 54.320312 41.964844 C 54.308594 42 54.296875 42.035156 54.285156 42.070312 C 54.226562 42.011719 54.171875 41.957031 54.109375 41.894531 C 54.167969 41.835938 54.210938 41.792969 54.285156 41.753906 Z M 54.285156 41.753906 "/>
<path style=" stroke:none;fill-rule:nonzero;fill:rgb(26.274511%,92.156863%,23.921569%);fill-opacity:1;" d="M 12.25 30.589844 C 12.273438 30.601562 12.296875 30.613281 12.320312 30.625 C 12.21875 30.71875 12.113281 30.8125 12.003906 30.90625 C 11.980469 30.882812 11.957031 30.859375 11.933594 30.835938 C 12.03125 30.730469 12.125 30.652344 12.25 30.589844 Z M 12.25 30.589844 "/>
</g>
</svg>
